<svg xmlns="http://www.w3.org/2000/svg" xmlns:xlink="http://www.w3.org/1999/xlink" width="999" zoomAndPan="magnify" viewBox="0 0 749.25 360.749994" height="481" preserveAspectRatio="xMidYMid meet" version="1.0"><defs><g/><clipPath id="93380ab96e"><path d="M 542.777344 156.839844 L 587.730469 156.839844 L 587.730469 201.796875 L 542.777344 201.796875 Z M 542.777344 156.839844 " clip-rule="nonzero"/></clipPath><clipPath id="af0e1c7eac"><path d="M 639.882812 106.191406 L 676.265625 106.191406 L 676.265625 141.40625 L 639.882812 141.40625 Z M 639.882812 106.191406 " clip-rule="nonzero"/></clipPath></defs><g fill="#ff7aa6" fill-opacity="1"><g transform="translate(74.692101, 238.449496)"><g><path d="M 89.984375 3.515625 C 72.265625 3.515625 56.945312 1.113281 44.03125 -3.6875 C 31.113281 -8.488281 21.1875 -15.582031 14.25 -24.96875 C 7.3125 -34.363281 3.84375 -45.84375 3.84375 -59.40625 C 3.84375 -72.957031 7.3125 -84.375 14.25 -93.65625 C 21.1875 -102.945312 31.113281 -109.992188 44.03125 -114.796875 C 56.945312 -119.597656 72.265625 -122 89.984375 -122 C 106.742188 -122 121.363281 -119.8125 133.84375 -115.4375 C 146.332031 -111.0625 156.125 -104.738281 163.21875 -96.46875 C 170.320312 -88.195312 174.195312 -78.191406 174.84375 -66.453125 L 119.921875 -66.453125 C 118.859375 -72.640625 115.578125 -77.359375 110.078125 -80.609375 C 104.578125 -83.867188 98.09375 -85.5 90.625 -85.5 C 81.976562 -85.5 74.851562 -83.390625 69.25 -79.171875 C 63.644531 -74.953125 60.84375 -68.363281 60.84375 -59.40625 C 60.84375 -50.4375 63.671875 -43.789062 69.328125 -39.46875 C 74.984375 -35.144531 82.1875 -32.984375 90.9375 -32.984375 C 98.519531 -32.984375 105.054688 -34.554688 110.546875 -37.703125 C 116.046875 -40.847656 119.222656 -45.625 120.078125 -52.03125 L 174.84375 -52.03125 C 174.09375 -40.507812 170.113281 -30.609375 162.90625 -22.328125 C 155.707031 -14.054688 145.914062 -7.679688 133.53125 -3.203125 C 121.144531 1.273438 106.628906 3.515625 89.984375 3.515625 Z M 89.984375 3.515625 "/></g></g></g><g fill="#ff7aa6" fill-opacity="1"><g transform="translate(238.96684, 238.449496)"><g><path d="M 118 0 L 118 -44.671875 L 67.890625 -44.671875 L 67.890625 0 L 11.53125 0 L 11.53125 -118.96875 L 67.890625 -118.96875 L 67.890625 -78.296875 L 118 -78.296875 L 118 -118.96875 L 174.203125 -118.96875 L 174.203125 0 Z M 118 0 "/></g></g></g><g fill="#ff7aa6" fill-opacity="1"><g transform="translate(410.286524, 238.449496)"><g><path d="M 11.53125 0 L 11.53125 -118.96875 L 67.890625 -118.96875 L 67.890625 0 Z M 11.53125 0 "/></g></g></g><g fill="#ff7aa6" fill-opacity="1"><g transform="translate(475.163769, 238.449496)"><g/></g></g><g fill="#ff7aa6" fill-opacity="1"><g transform="translate(536.326505, 238.449496)"><g/></g></g><g fill="#ff7aa6" fill-opacity="1"><g transform="translate(597.489242, 238.449496)"><g/></g></g><g fill="#ff7aa6" fill-opacity="1"><g transform="translate(654.618229, 121.585621)"><g><path d="M -89.984375 -3.515625 C -72.265625 -3.515625 -56.945312 -1.113281 -44.03125 3.6875 C -31.113281 8.488281 -21.1875 15.582031 -14.25 24.96875 C -7.3125 34.363281 -3.84375 45.84375 -3.84375 59.40625 C -3.84375 72.957031 -7.3125 84.375 -14.25 93.65625 C -21.1875 102.945312 -31.113281 109.992188 -44.03125 114.796875 C -56.945312 119.597656 -72.265625 122 -89.984375 122 C -106.742188 122 -121.363281 119.8125 -133.84375 115.4375 C -146.332031 111.0625 -156.125 104.738281 -163.21875 96.46875 C -170.320312 88.195312 -174.195312 78.191406 -174.84375 66.453125 L -119.921875 66.453125 C -118.859375 72.640625 -115.578125 77.359375 -110.078125 80.609375 C -104.578125 83.867188 -98.09375 85.5 -90.625 85.5 C -81.976562 85.5 -74.851562 83.390625 -69.25 79.171875 C -63.644531 74.953125 -60.84375 68.363281 -60.84375 59.40625 C -60.84375 50.4375 -63.671875 43.789062 -69.328125 39.46875 C -74.984375 35.144531 -82.1875 32.984375 -90.9375 32.984375 C -98.519531 32.984375 -105.054688 34.554688 -110.546875 37.703125 C -116.046875 40.847656 -119.222656 45.625 -120.078125 52.03125 L -174.84375 52.03125 C -174.09375 40.507812 -170.113281 30.609375 -162.90625 22.328125 C -155.707031 14.054688 -145.914062 7.679688 -133.53125 3.203125 C -121.144531 -1.273438 -106.628906 -3.515625 -89.984375 -3.515625 Z M -89.984375 -3.515625 "/></g></g></g><g clip-path="url(#93380ab96e)"><path fill="#ff009d" d="M 565.171875 156.839844 C 565.171875 169.210938 555.144531 179.234375 542.777344 179.234375 C 555.144531 179.234375 565.171875 189.265625 565.171875 201.632812 C 565.171875 189.265625 575.199219 179.234375 587.566406 179.234375 C 575.199219 179.234375 565.171875 169.210938 565.171875 156.839844 " fill-opacity="1" fill-rule="nonzero"/></g><g clip-path="url(#af0e1c7eac)"><path fill="#ff7aa6" d="M 655.429688 123.140625 L 657.375 123.140625 C 659.640625 123.140625 661.476562 122.386719 661.476562 120.550781 C 661.476562 118.929688 660.289062 117.851562 657.699219 117.851562 C 656.617188 117.851562 655.863281 117.957031 655.429688 118.066406 Z M 655.324219 133.074219 L 651.21875 133.074219 L 651.21875 115.367188 C 652.839844 115.152344 655.105469 114.828125 658.019531 114.828125 C 661.367188 114.828125 662.878906 115.367188 664.066406 116.230469 C 665.148438 116.988281 665.902344 118.28125 665.902344 120.007812 C 665.902344 122.167969 664.28125 123.574219 662.230469 124.21875 L 662.230469 124.4375 C 663.960938 124.976562 664.824219 126.378906 665.363281 128.753906 C 665.902344 131.453125 666.335938 132.425781 666.65625 133.074219 L 662.339844 133.074219 C 661.800781 132.425781 661.476562 130.914062 660.9375 128.753906 C 660.613281 126.917969 659.53125 126.054688 657.265625 126.054688 L 655.324219 126.054688 Z M 644.417969 123.894531 C 644.417969 131.777344 650.355469 138.039062 658.238281 138.039062 C 665.902344 138.148438 671.730469 131.777344 671.730469 124.003906 C 671.730469 116.125 665.902344 109.753906 658.019531 109.753906 C 650.355469 109.753906 644.417969 116.125 644.417969 123.894531 Z M 676.265625 123.894531 C 676.265625 133.828125 668.277344 141.710938 658.128906 141.710938 C 647.980469 141.710938 639.882812 133.828125 639.882812 123.894531 C 639.882812 113.964844 647.980469 106.191406 658.238281 106.191406 C 668.277344 106.191406 676.265625 113.964844 676.265625 123.894531 " fill-opacity="1" fill-rule="nonzero"/></g></svg>